<?xml version="1.0" encoding="UTF-8" standalone="no"?>
<!DOCTYPE svg PUBLIC "-//W3C//DTD SVG 1.1//EN" "http://www.w3.org/Graphics/SVG/1.1/DTD/svg11.dtd">
<svg width="100%" height="100%" viewBox="0 0 46 46" version="1.1" xmlns="http://www.w3.org/2000/svg" xmlns:xlink="http://www.w3.org/1999/xlink" xml:space="preserve" style="fill-rule:evenodd;clip-rule:evenodd;stroke-linejoin:round;stroke-miterlimit:2;">
    <g transform="matrix(0.965926,0.258819,-0.258819,0.965926,5.61725,-6.91035)">
        <path d="M42.396,5.604C43.184,6.393 43.206,7.665 42.445,8.481L36.222,15.147L36.25,15.186C35.577,15.617 35.357,16.506 35.761,17.205C36.157,17.892 37.012,18.149 37.716,17.812L37.756,17.79C37.884,18.073 38.003,18.36 38.114,18.652C37.351,18.895 36.907,19.697 37.116,20.478C37.322,21.245 38.084,21.715 38.853,21.569L38.891,21.56C38.94,21.865 38.981,22.173 39.012,22.484C38.213,22.522 37.578,23.181 37.578,23.989C37.578,24.784 38.193,25.435 38.973,25.492L39.012,25.494C38.981,25.805 38.94,26.113 38.891,26.418C38.11,26.248 37.325,26.72 37.116,27.501C36.91,28.268 37.336,29.056 38.074,29.314L38.114,29.326C38.003,29.618 37.884,29.905 37.756,30.188C37.045,29.82 36.165,30.073 35.761,30.773C35.364,31.459 35.569,32.328 36.213,32.769L36.25,32.792C36.068,33.045 35.878,33.291 35.682,33.531C35.089,32.995 34.175,33.012 33.604,33.583C33.047,34.14 33.017,35.026 33.516,35.619L33.553,35.66C33.313,35.857 33.066,36.046 32.814,36.228C32.383,35.555 31.494,35.335 30.795,35.739C30.108,36.135 29.851,36.99 30.188,37.694L30.21,37.735C29.927,37.862 29.64,37.981 29.348,38.092C29.105,37.329 28.303,36.885 27.522,37.094C26.755,37.3 26.285,38.062 26.431,38.831L26.44,38.869C26.135,38.919 25.827,38.959 25.516,38.99C25.478,38.191 24.818,37.556 24.011,37.556C23.216,37.556 22.565,38.171 22.508,38.951L22.506,38.99C22.195,38.959 21.887,38.919 21.582,38.869C21.752,38.088 21.28,37.303 20.499,37.094C19.732,36.888 18.944,37.314 18.686,38.053L18.674,38.092C18.382,37.981 18.095,37.862 17.812,37.735C18.18,37.023 17.927,36.143 17.227,35.739C16.541,35.342 15.672,35.548 15.231,36.191L15.208,36.228C14.955,36.046 14.709,35.857 14.469,35.66C15.005,35.068 14.988,34.153 14.417,33.583C13.86,33.025 12.974,32.996 12.381,33.495L12.34,33.531C12.143,33.291 11.954,33.045 11.772,32.792C12.445,32.361 12.665,31.472 12.261,30.773C11.865,30.086 11.01,29.829 10.306,30.166L10.265,30.188C10.138,29.905 10.019,29.618 9.908,29.326C10.671,29.083 11.115,28.281 10.906,27.501C10.7,26.733 9.938,26.263 9.169,26.41L9.131,26.418C9.081,26.113 9.041,25.805 9.01,25.494C9.809,25.456 10.444,24.797 10.444,23.989C10.444,23.194 9.829,22.543 9.049,22.486L9.01,22.484C9.041,22.173 9.081,21.865 9.131,21.56C9.912,21.731 10.697,21.258 10.906,20.478C11.112,19.71 10.686,18.922 9.947,18.664L9.908,18.652C10.019,18.36 10.138,18.073 10.265,17.79C10.977,18.159 11.857,17.905 12.261,17.205C12.658,16.519 12.452,15.65 11.809,15.209L11.772,15.186C11.954,14.934 12.143,14.687 12.34,14.447C12.932,14.984 13.847,14.966 14.417,14.396C14.975,13.838 15.004,12.952 14.505,12.359L14.469,12.318C14.709,12.122 14.955,11.932 15.208,11.75C15.639,12.423 16.528,12.643 17.227,12.239C17.914,11.843 18.171,10.988 17.834,10.284L17.812,10.244C18.095,10.116 18.382,9.997 18.674,9.886C18.917,10.649 19.719,11.093 20.499,10.884C21.267,10.678 21.737,9.916 21.59,9.147L21.582,9.109C21.887,9.06 22.195,9.019 22.506,8.988C22.544,9.787 23.203,10.422 24.011,10.422C24.806,10.422 25.457,9.807 25.514,9.027L25.516,8.988C25.827,9.019 26.135,9.06 26.44,9.109C26.269,9.89 26.742,10.675 27.522,10.884C28.29,11.09 29.078,10.664 29.336,9.926L29.348,9.886C29.64,9.997 29.927,10.116 30.21,10.244C29.841,10.955 30.095,11.835 30.795,12.239C31.481,12.636 32.35,12.431 32.791,11.787L32.814,11.75L32.852,11.778L39.519,5.555C40.335,4.794 41.607,4.816 42.396,5.604ZM21.018,26.63L15.214,26.631L15.22,26.614L13.068,26.615C14.02,30.594 17.085,33.751 21.01,34.835L21.011,32.239L21.018,32.135L21.018,26.63ZM23.636,32.239C22.807,32.239 22.136,32.911 22.136,33.74C22.136,34.494 22.693,35.118 23.418,35.224C23.524,35.23 23.63,35.234 23.737,35.236C24.519,35.184 25.136,34.534 25.136,33.74C25.136,32.911 24.464,32.239 23.636,32.239ZM14.26,22.489C13.432,22.489 12.76,23.161 12.76,23.989C12.76,24.818 13.432,25.489 14.26,25.489C15.089,25.489 15.761,24.818 15.761,23.989C15.761,23.161 15.089,22.489 14.26,22.489ZM34.953,26.615L32.261,26.614L32.213,26.61L32.214,26.631L26.268,26.631L26.268,32.436L26.261,32.433L26.261,35.015C30.543,34.146 33.942,30.844 34.953,26.615ZM21.01,13.143C17.084,14.227 14.019,17.385 13.068,21.364L15.761,21.364C15.812,21.364 15.863,21.369 15.912,21.379L21.018,21.381L21.017,15.839L21.012,15.789L21.01,13.143ZM25.425,22.575C24.644,21.794 23.378,21.794 22.597,22.575C21.816,23.356 21.816,24.622 22.597,25.403C23.378,26.184 24.644,26.184 25.425,25.403C26.206,24.622 26.206,23.356 25.425,22.575ZM23.737,12.742L23.418,12.754C22.693,12.86 22.136,13.484 22.136,14.239C22.136,15.067 22.807,15.739 23.636,15.739C24.464,15.739 25.136,15.067 25.136,14.239C25.136,13.444 24.518,12.794 23.737,12.742ZM33.761,22.489C32.933,22.489 32.261,23.161 32.261,23.989C32.261,24.818 32.933,25.489 33.761,25.489C34.552,25.489 35.2,24.877 35.257,24.101L35.261,23.989C35.261,23.161 34.59,22.489 33.761,22.489ZM26.261,12.964L26.261,15.436L26.268,15.436L26.268,17.922L29.984,14.454C28.861,13.748 27.604,13.236 26.261,12.964ZM33.546,18.016L30.405,21.379L32.11,21.379C32.159,21.369 32.21,21.364 32.261,21.364L34.954,21.364C34.666,20.161 34.185,19.034 33.546,18.016ZM41.689,6.311C41.298,5.921 40.665,5.921 40.274,6.311C39.884,6.702 39.884,7.335 40.274,7.726C40.665,8.116 41.298,8.116 41.689,7.726C42.079,7.335 42.079,6.702 41.689,6.311Z"/>
    </g>
    <g transform="matrix(1,0,0,1,-1.43423,-1.51938)">
        <path d="M36.619,5.377C32.891,2.863 28.497,1.519 24,1.519C11.546,1.519 1.434,11.631 1.434,24.085C1.434,36.54 11.546,46.651 24,46.651C36.454,46.651 46.566,36.54 46.566,24.085C46.566,23.56 46.547,23.035 46.511,22.511L44.998,22.617C45.032,23.106 45.049,23.595 45.049,24.085C45.049,35.703 35.617,45.134 24,45.134C12.383,45.134 2.951,35.703 2.951,24.085C2.951,12.468 12.383,3.036 24,3.036C28.194,3.036 32.293,4.289 35.771,6.635L36.619,5.377Z"/>
    </g>
    <g transform="matrix(-1.22722,1.82269,-1.82269,-1.22722,93.9174,-52.9837)">
        <path d="M36.799,5.927L38.475,8.992L35.123,8.992L36.799,5.927Z"/>
    </g>
</svg>
