<?xml version="1.0" encoding="UTF-8" standalone="no"?>
<!DOCTYPE svg PUBLIC "-//W3C//DTD SVG 1.1//EN" "http://www.w3.org/Graphics/SVG/1.1/DTD/svg11.dtd">
<svg width="100%" height="100%" viewBox="0 0 7 6" version="1.1" xmlns="http://www.w3.org/2000/svg" xmlns:xlink="http://www.w3.org/1999/xlink" xml:space="preserve" style="fill-rule:evenodd;clip-rule:evenodd;stroke-linejoin:round;stroke-miterlimit:2;">
    <g transform="matrix(1,0,0,1,-0.48,-1.14)">
        <path d="M3.031,5.264C3.031,5.969 2.46,6.54 1.756,6.54C1.052,6.54 0.48,5.968 0.48,5.264C0.48,4.56 1.051,3.989 1.756,3.989L1.756,4.308C1.227,4.308 0.799,4.736 0.799,5.264C0.799,5.792 1.228,6.221 1.756,6.221C2.284,6.221 2.712,5.793 2.712,5.264L3.031,5.264ZM5.924,3.989C6.629,3.989 7.2,4.56 7.2,5.264C7.2,5.968 6.628,6.54 5.924,6.54C5.22,6.54 4.649,5.969 4.649,5.264L4.968,5.264C4.968,5.793 5.396,6.221 5.924,6.221C6.452,6.221 6.881,5.792 6.881,5.264C6.881,4.736 6.453,4.308 5.924,4.308L5.924,3.989ZM1.948,3.237C1.895,3.033 1.982,2.81 2.173,2.7L3.6,1.876C3.829,1.744 4.123,1.822 4.256,2.052C4.292,2.114 4.312,2.181 4.318,2.249L4.856,3.18L5.69,3.18C5.823,3.18 5.93,3.288 5.93,3.42C5.93,3.552 5.823,3.66 5.69,3.66L4.741,3.66C4.651,3.669 4.559,3.625 4.51,3.541L4.041,2.73L3.138,3.251L4.435,4C4.607,4.1 4.666,4.32 4.567,4.492C4.566,4.493 4.565,4.495 4.565,4.496C4.557,4.519 4.547,4.541 4.535,4.562L3.838,5.77C3.738,5.942 3.518,6.001 3.346,5.901C3.174,5.802 3.115,5.582 3.214,5.41L3.77,4.447L2.235,3.561C2.192,3.544 2.151,3.521 2.114,3.491C2.021,3.433 1.963,3.339 1.948,3.237ZM4.66,1.14C4.925,1.14 5.14,1.355 5.14,1.62C5.14,1.885 4.925,2.1 4.66,2.1C4.395,2.1 4.18,1.885 4.18,1.62C4.18,1.355 4.395,1.14 4.66,1.14Z"/>
    </g>
</svg>
