<?xml version="1.0" encoding="UTF-8" standalone="no"?>
<!DOCTYPE svg PUBLIC "-//W3C//DTD SVG 1.1//EN" "http://www.w3.org/Graphics/SVG/1.1/DTD/svg11.dtd">
<svg width="100%" height="100%" viewBox="0 0 95 89" version="1.1" xmlns="http://www.w3.org/2000/svg" xmlns:xlink="http://www.w3.org/1999/xlink" xml:space="preserve" style="fill-rule:evenodd;clip-rule:evenodd;stroke-linejoin:round;stroke-miterlimit:2;">
    <g transform="matrix(1,0,0,1,-2.5,-5.7)">
        <path d="M18.5,82C22.4,76.7 30.7,64.2 30.7,55.4C30.7,47.6 24.4,41.3 16.6,41.3C8.8,41.3 2.5,47.6 2.5,55.4C2.5,64.2 10.9,76.7 14.7,82C15.7,83.3 17.6,83.3 18.5,82ZM9.9,55.3C9.9,51.5 13,48.5 16.7,48.5C20.4,48.5 23.5,51.6 23.5,55.3C23.5,59.1 20.4,62.1 16.7,62.1C13,62.1 9.9,59.1 9.9,55.3Z" style="fill-rule:nonzero;"/>
        <path d="M85.3,46.4C89.2,41.1 97.5,28.6 97.5,19.8C97.5,12 91.2,5.7 83.4,5.7C75.6,5.7 69.3,12 69.3,19.8C69.3,28.6 77.7,41.1 81.5,46.4C82.4,47.7 84.3,47.7 85.3,46.4ZM76.6,19.8C76.6,16 79.7,13 83.4,13C87.2,13 90.2,16.1 90.2,19.8C90.2,23.6 87.1,26.6 83.4,26.6C79.7,26.6 76.6,23.6 76.6,19.8Z" style="fill-rule:nonzero;"/>
        <path d="M83.4,52.5L54,52.5C47.4,52.5 42,57.9 42,64.5C42,71.1 47.4,76.5 54,76.5L62.9,76.5C66.1,76.5 68.7,79.1 68.7,82.3C68.7,85.5 66.1,88.1 62.9,88.1L16.6,88.1C14.9,88.1 13.5,89.5 13.5,91.2C13.5,92.9 14.9,94.3 16.6,94.3L62.9,94.3C69.5,94.3 74.9,88.9 74.9,82.3C74.9,75.7 69.5,70.3 62.9,70.3L54,70.3C50.8,70.3 48.2,67.7 48.2,64.5C48.2,61.3 50.8,58.7 54,58.7L83.4,58.7C85.1,58.7 86.5,57.3 86.5,55.6C86.5,53.9 85.1,52.5 83.4,52.5Z" style="fill-rule:nonzero;"/>
    </g>
</svg>
