<?xml version="1.0" encoding="UTF-8" standalone="no"?>
<!DOCTYPE svg PUBLIC "-//W3C//DTD SVG 1.1//EN" "http://www.w3.org/Graphics/SVG/1.1/DTD/svg11.dtd">
<svg width="100%" height="100%" viewBox="0 0 681 897" version="1.1" xmlns="http://www.w3.org/2000/svg" xmlns:xlink="http://www.w3.org/1999/xlink" xml:space="preserve" style="fill-rule:evenodd;clip-rule:evenodd;stroke-linejoin:round;stroke-miterlimit:2;">
    <g transform="matrix(1,0,0,1,-117.878,-27.2304)">
        <path d="M323.088,895.574L440.965,546.154L145.871,546.154L592.958,54.736L475.093,404.154L770.175,404.154L323.088,895.574Z" style="fill-rule:nonzero;"/>
    </g>
    <g transform="matrix(1,0,0,1,-117.878,-27.2304)">
        <path d="M350.088,903.46C361.753,868.881 373.419,834.301 385.084,799.721C405.291,739.824 425.497,679.925 445.703,620.028C453.124,598.031 460.545,576.034 467.965,554.037C473.844,536.61 458.386,518.594 440.965,518.594L145.871,518.594C152.471,534.527 159.07,550.46 165.67,566.393C181.255,549.263 196.84,532.132 212.426,515.001C249.557,474.188 286.689,433.376 323.821,392.563C368.062,343.935 412.303,295.308 456.545,246.68C493.46,206.105 530.374,165.531 567.289,124.955C582.445,108.296 597.602,91.638 612.758,74.978C597.158,65.897 581.559,56.816 565.959,47.736C554.295,82.316 542.631,116.895 530.967,151.474C510.763,211.372 490.558,271.269 470.354,331.167C462.934,353.164 455.514,375.161 448.094,397.158C442.216,414.585 457.673,432.601 475.094,432.601L770.176,432.601C763.576,416.668 756.977,400.735 750.377,384.802C734.792,401.932 719.206,419.063 703.621,436.193C666.489,477.006 629.358,517.819 592.226,558.632C547.985,607.26 503.744,655.888 459.502,704.516C422.587,745.091 385.672,785.666 348.757,826.242C333.601,842.9 318.445,859.559 303.289,876.219C293.026,887.498 292.121,904.649 303.289,915.817C313.695,926.223 332.613,927.109 342.887,915.817C358.472,898.687 374.057,881.556 389.643,864.425C426.774,823.612 463.906,782.799 501.037,741.987C545.278,693.359 589.52,644.731 633.762,596.103C670.677,555.528 707.591,514.953 744.506,474.378C759.662,457.719 774.819,441.06 789.975,424.401C796.786,416.915 799.924,407.151 797.176,397.159C793.872,385.148 782.628,376.602 770.176,376.602L475.094,376.602C484.094,388.416 493.094,400.231 502.094,412.045C513.758,377.465 525.422,342.886 537.086,308.307C557.29,248.409 577.495,188.512 597.699,128.614C605.119,106.617 612.539,84.62 619.959,62.623C623.943,50.81 617.457,37.075 607.091,31.002C596.619,24.868 581.568,26.139 573.16,35.38C557.575,52.51 541.989,69.641 526.404,86.771C489.272,127.584 452.141,168.397 415.009,209.209C370.768,257.837 326.527,306.464 282.285,355.092C245.37,395.667 208.455,436.241 171.54,476.817C156.384,493.476 141.228,510.134 126.072,526.794C119.261,534.279 116.122,544.044 118.871,554.036C122.175,566.048 133.418,574.593 145.871,574.593L440.965,574.593C431.965,562.779 422.965,550.964 413.965,539.15C402.3,573.729 390.634,608.309 378.969,642.889C358.762,702.786 338.556,762.685 318.35,822.582C310.929,844.579 303.509,866.576 296.088,888.573C291.208,903.04 301.563,919.143 315.645,923.016C330.992,927.238 345.214,917.908 350.088,903.46Z" style="fill-rule:nonzero;"/>
    </g>
</svg>
