<?xml version="1.0" encoding="UTF-8" standalone="no"?>
<!DOCTYPE svg PUBLIC "-//W3C//DTD SVG 1.1//EN" "http://www.w3.org/Graphics/SVG/1.1/DTD/svg11.dtd">
<svg width="100%" height="100%" viewBox="0 0 754 671" version="1.1" xmlns="http://www.w3.org/2000/svg" xmlns:xlink="http://www.w3.org/1999/xlink" xml:space="preserve" style="fill-rule:evenodd;clip-rule:evenodd;stroke-linejoin:round;stroke-miterlimit:2;">
    <g transform="matrix(1,0,0,1,-46.8066,-88.0584)">
        <path d="M423.31,157.09C600.67,-8.56 831.29,148.41 796.31,369.16L664.24,369.16L630,310.89C618.62,288.51 585.46,289.53 576.08,313.53L513.85,471.45L489.94,420.28C485.39,410.54 475.68,403.64 464.2,403.23L415.91,401.38L373.16,289.61C363.46,264.18 326.77,264.22 317.65,290.39L277.27,406.35L263.1,383.47C258.22,373.81 248.2,367.17 236.63,367.17L50.05,367.17C16.77,147.47 246.49,-8.05 423.31,157.09ZM780.74,428.4C740.57,538.5 633.18,658.04 423.31,758.61C212.21,657.45 104.76,537.08 65.17,426.43L220.25,426.43L259.67,490.08C272.85,511.43 304.63,507.37 312.66,484.28L346.79,386.35L367.54,440.67C372.16,452.8 383.89,460.14 396.18,459.73L443.9,461.57L489.23,558.95C500.61,583.41 535.84,580.88 544.19,555.8L608.92,391.56L621.94,413.72C627.43,423.09 637.28,428.3 647.41,428.31L780.74,428.4Z"/>
    </g>
</svg>
