<?xml version="1.0" encoding="UTF-8" standalone="no"?>
<!DOCTYPE svg PUBLIC "-//W3C//DTD SVG 1.1//EN" "http://www.w3.org/Graphics/SVG/1.1/DTD/svg11.dtd">
<svg width="100%" height="100%" viewBox="0 0 96 86" version="1.1" xmlns="http://www.w3.org/2000/svg" xmlns:xlink="http://www.w3.org/1999/xlink" xml:space="preserve" style="fill-rule:evenodd;clip-rule:evenodd;stroke-linejoin:round;stroke-miterlimit:2;">
    <g transform="matrix(1,0,0,1,-2.40098,-7.0474)">
        <g>
            <g>
                <path d="M52.6,67.6C51,64.7 51,61.2 52.7,58.3C42.6,51.2 33.1,56.6 28.6,59.6C27.9,60.1 26.9,59.4 27.1,58.6C27.8,55.5 29.1,50.1 30.5,44.9C32.6,37.2 36.6,26.9 40.7,26.5C46.2,26 49.7,24.6 53.4,24.6C57.9,24.6 60.2,23.1 60.2,21C60.2,18.9 58.3,19.3 57.1,18.7C56.4,18.3 59.8,15.6 60.9,13.2C62,10.8 54,8 49.1,7.2C44.3,6.4 42.3,8.9 40.7,11.1C39.2,13.2 32.7,21.9 21.5,32.7C13.2,40.8 6.2,55.7 3.2,62.9C1.9,66 2.2,69.5 4,72.2C13.2,85.7 42.7,87 53,84.9C55.5,86.3 59.2,87.5 63.3,88L64.3,72.5L60.9,72.5C57.4,72.4 54.3,70.6 52.6,67.6Z" style="fill-rule:nonzero;"/>
                <path d="M94.3,51L84.3,51L85.7,27.8C85.9,24.4 81.5,23 79.7,25.9L58.1,61.3C56.8,63.5 58.3,66.2 60.9,66.2L70.9,66.2L69.5,89.4C69.3,92.8 73.7,94.2 75.5,91.3L97,55.9C98.3,53.7 96.8,51 94.3,51Z" style="fill-rule:nonzero;"/>
            </g>
        </g>
    </g>
</svg>
