<?xml version="1.0" encoding="UTF-8" standalone="no"?>
<!DOCTYPE svg PUBLIC "-//W3C//DTD SVG 1.1//EN" "http://www.w3.org/Graphics/SVG/1.1/DTD/svg11.dtd">
<svg width="100%" height="100%" viewBox="0 0 75 93" version="1.1" xmlns="http://www.w3.org/2000/svg" xmlns:xlink="http://www.w3.org/1999/xlink" xml:space="preserve" style="fill-rule:evenodd;clip-rule:evenodd;stroke-linejoin:round;stroke-miterlimit:2;">
    <g transform="matrix(1,0,0,1,-12.5288,-4.28869)">
        <path d="M54.764,7.762C57.398,4.045 62.569,3.176 66.287,5.814C70.016,8.451 70.313,12.999 67.674,16.717C65.033,20.426 60.45,21.939 56.73,19.293C53.004,16.648 52.117,11.484 54.764,7.762Z" style="fill-rule:nonzero;"/>
    </g>
    <g transform="matrix(1,0,0,1,-12.5288,-4.28869)">
        <path d="M87.469,24.559C87.416,22.517 85.03,20.237 82.574,20.736C81.634,20.925 80.494,21.376 79.845,22.329L76.231,27.549L72.666,32.764C72.666,32.764 67.611,27.859 66.035,26.582C64.458,25.306 62.891,24.271 60.897,23.099C58.902,21.927 53.739,20.667 51.527,20.951L50.093,21.159L35.983,23.201C33.517,23.678 32.225,25.396 31.72,26.291L25.584,37.122C25.009,38.199 24.574,39.241 24.785,40.345C25.171,42.391 27.215,43.949 29.369,43.577C30.527,43.378 31.874,42.612 32.772,41.27L38.127,32.564L44.333,31.662L36.951,48.418C32.845,55.638 39.163,60.208 41.412,62.455L42.2,63.137L53.845,73.223L45.567,87.342C45.121,87.93 44.971,88.824 44.971,89.57C44.971,92.393 47.205,94.62 49.877,94.62C51.957,94.62 53.589,93.433 54.481,91.793L56.628,88.033L63.632,75.763C65.982,71.066 62.6,67.097 62.6,67.097L50.711,55.209L53.885,49.731L61.303,37.018L70.921,42.67C70.921,42.67 74.692,45.389 77.502,41.265L80.859,36.369L86.254,28.4C86.267,28.382 86.275,28.367 86.284,28.349C87.391,26.642 87.492,25.576 87.469,24.559Z" style="fill-rule:nonzero;"/>
    </g>
    <g transform="matrix(1,0,0,1,-12.5288,-4.28869)">
        <path d="M40.174,65.165L39.387,64.48C38.327,63.423 36.375,61.843 35.026,59.719C34.972,59.635 24.915,76.467 24.915,76.467L13.73,88.416C13.165,88.894 12.822,89.731 12.658,90.459C12.036,93.213 13.725,95.878 16.33,96.465C18.359,96.923 20.212,96.125 21.445,94.722L24.367,91.526L33.901,81.1C36.372,78.081 41.193,71.328 43.511,68.054L40.174,65.165Z" style="fill-rule:nonzero;"/>
    </g>
</svg>
